<svg id="Layer_1" data-name="Layer 1" xmlns="http://www.w3.org/2000/svg" viewBox="0 0 2115.46 626.17"><defs><style>.cls-1{isolation:isolate;}.cls-2{fill:#dc7d11;}.cls-3{fill:#304584;}.cls-4{fill:#17a3cb;}</style></defs><title>Anniversary Logo_40 Years</title><g class="cls-1"><path class="cls-2" d="M98.41,617.47H83.1v19.74H61.87V617.47H11.24V602.83l44.32-59.64H78.39l-41.1,56.55H62.54v-17.6H83.1v17.6H98.41Z" transform="translate(-11.24 -12.65)"/><path class="cls-2" d="M124.33,633.05A38.67,38.67,0,0,1,110,616.33q-5.18-11-5.18-26.13T110,564.08a38.76,38.76,0,0,1,14.3-16.73,40.45,40.45,0,0,1,41.64,0,38.82,38.82,0,0,1,14.3,16.73q5.17,10.95,5.17,26.12t-5.17,26.13A38.74,38.74,0,0,1,166,633.05a40.45,40.45,0,0,1-41.64,0Zm34.32-20q4.9-7.39,4.9-22.84t-4.9-22.83a15.37,15.37,0,0,0-13.5-7.39q-8.46,0-13.37,7.39t-4.9,22.83q0,15.45,4.9,22.84t13.37,7.38A15.38,15.38,0,0,0,158.65,613Z" transform="translate(-11.24 -12.65)"/></g><g class="cls-1"><path class="cls-2" d="M285,603.9v33.31H263.27V603.63l-36.4-60.44H250L275.09,585l25.12-41.77h21.36Z" transform="translate(-11.24 -12.65)"/></g><g class="cls-1"><path class="cls-2" d="M391.52,607H336.85a17,17,0,0,0,7,10.61q5.51,3.9,13.7,3.9a27.75,27.75,0,0,0,10-1.68,24.27,24.27,0,0,0,8.13-5.31l11.14,12.09q-10.2,11.68-29.81,11.69a47.18,47.18,0,0,1-21.63-4.77,34.93,34.93,0,0,1-14.5-13.23,36.38,36.38,0,0,1-5.11-19.21,36.93,36.93,0,0,1,5-19.14,35.38,35.38,0,0,1,13.83-13.3,42.9,42.9,0,0,1,38.89-.2,33.37,33.37,0,0,1,13.5,13.1,39.14,39.14,0,0,1,4.9,19.81C391.92,601.62,391.78,603.5,391.52,607Zm-49-23.24a17.2,17.2,0,0,0-5.91,11h35.59a17.26,17.26,0,0,0-5.91-10.95,17.65,17.65,0,0,0-11.82-4.09A18.07,18.07,0,0,0,342.49,583.75Z" transform="translate(-11.24 -12.65)"/></g><g class="cls-1"><path class="cls-2" d="M458.78,571.87q9,8,9,24.11v41.23H448.17v-9q-5.91,10.08-22,10.08a34.22,34.22,0,0,1-14.44-2.82,21.56,21.56,0,0,1-9.33-7.79,20.3,20.3,0,0,1-3.22-11.29q0-10.07,7.58-15.85t23.44-5.77h16.66q0-6.85-4.17-10.55t-12.49-3.69a36.75,36.75,0,0,0-11.35,1.81,30.16,30.16,0,0,0-9.47,4.91l-7.52-14.64A45.21,45.21,0,0,1,416,566.16a63.58,63.58,0,0,1,17-2.28Q449.79,563.88,458.78,571.87ZM440.92,621.7a13.67,13.67,0,0,0,5.91-7.32V607H432.46q-12.9,0-12.9,8.46a7.51,7.51,0,0,0,3.16,6.38q3.15,2.35,8.66,2.35A18.24,18.24,0,0,0,440.92,621.7Z" transform="translate(-11.24 -12.65)"/></g><g class="cls-1"><path class="cls-2" d="M516.88,566.56a37.61,37.61,0,0,1,14.7-2.68v19.34c-2.33-.18-3.89-.27-4.7-.27q-9,0-14.1,5t-5.1,15.11v34.11h-21V565h20v9.54A23.24,23.24,0,0,1,516.88,566.56Z" transform="translate(-11.24 -12.65)"/></g><g class="cls-1"><path class="cls-2" d="M551.06,636.07a46,46,0,0,1-13.7-5.57l7-15a43.86,43.86,0,0,0,11.68,5,48.91,48.91,0,0,0,13.43,2q13.31,0,13.3-6.58,0-3.09-3.63-4.44A54.19,54.19,0,0,0,568,609.14a106,106,0,0,1-14.65-3.09,22.61,22.61,0,0,1-10-6.18q-4.23-4.43-4.23-12.62a19.8,19.8,0,0,1,4-12.16,25.46,25.46,0,0,1,11.55-8.26,49.35,49.35,0,0,1,17.93-3,71,71,0,0,1,15.25,1.67,43.1,43.1,0,0,1,12.56,4.64l-7,14.91a41.73,41.73,0,0,0-20.82-5.37c-4.48,0-7.83.62-10.07,1.88s-3.36,2.86-3.36,4.83q0,3.36,3.63,4.7a63,63,0,0,0,11.55,2.55,124.26,124.26,0,0,1,14.5,3.16,21.83,21.83,0,0,1,9.81,6.11q4.15,4.44,4.16,12.36a19,19,0,0,1-4,11.95q-4,5.25-11.75,8.13a52.47,52.47,0,0,1-18.33,2.89A70.11,70.11,0,0,1,551.06,636.07Z" transform="translate(-11.24 -12.65)"/></g><ellipse class="cls-3" cx="128.46" cy="265.85" rx="32.4" ry="32.7"/><ellipse class="cls-3" cx="403.76" cy="192.55" rx="44.1" ry="44.5"/><path class="cls-3" d="M644.3,541.2,727.6,448c34.4,37.8,67.8,60.2,110.2,60.2,49.8,0,80.8-30.1,80.8-99.7V21.5h135.6V415c0,71.3-20.7,124.6-56.7,161s-91.1,55.8-156.4,55.8a245.86,245.86,0,0,1-196.8-90.6" transform="translate(-11.24 -12.65)"/><path class="cls-3" d="M1622.9,221.6v-1.7c0-56.7-18.1-104-51.6-137.5-39.5-39.6-98.8-61-175.2-61H1121.2V622.5h132.3V430.4h104l128.9,192.2h154.7L1494,408.1c76.2-28.4,128.9-89.3,128.9-186.5m-134.1,6.9c0,50.8-36.9,84.7-101.7,84.7H1253.4V140.9h131.4c64.5,0,104,29.2,104,85.9v1.7Z" transform="translate(-11.24 -12.65)"/><path class="cls-3" d="M1935.6,262.9c-104-26.7-129.7-39.6-129.7-79.1v-1.9c0-29.2,26.6-52.5,77.3-52.5s103.1,22.4,156.3,59.3L2108.2,89a348.29,348.29,0,0,0-223.4-76.3c-122.8,0-210.4,72.2-210.4,181.3v1.7c0,119.4,78.1,152.5,199.3,183.8,100.5,25.4,121.1,43,121.1,76.3v1.7c0,35.3-32.6,56.7-86.8,56.7-68.7,0-125.4-28.4-179.6-73l-78.1,93.2a382.28,382.28,0,0,0,255.6,96.9c129.7,0,220.8-67,220.8-186.4v-1.7c0-104.8-68.7-148.6-190.7-180.4" transform="translate(-11.24 -12.65)"/><path class="cls-4" d="M759.2,18c-279.7,16.9-540,86.5-745.7,199.8v41.3C208.3,147.5,469,72.7,759.2,54.3Z" transform="translate(-11.24 -12.65)"/><path class="cls-3" d="M56.4,484.8a315.91,315.91,0,0,1,42.4-52.7c18.3-16.9,37.3-17.7,60.4-1.4,16.9,12.1,30.8,31,49.4,54.1h47.1c-23.6-29.2-54.3-69.3-76.3-84.1-37.3-25.4-74.6-23.3-105.2,4.8A469.31,469.31,0,0,0,14,484.8Z" transform="translate(-11.24 -12.65)"/><path class="cls-3" d="M319.7,484.8a517.72,517.72,0,0,1,61.9-83c21.5-19.7,44.2-21.4,71.2-1.6,25.4,18.7,49.6,51.4,76.3,84.7h54.8c-25.4-32.3-75.4-98.6-107.2-120-43.9-29.5-87.8-27.5-123.8,5.6-21.2,19.5-62.5,80-82.9,114.4Z" transform="translate(-11.24 -12.65)"/><path class="cls-3" d="M246.1,327.2a141.61,141.61,0,0,1-49.5,8.9,123,123,0,0,1-38-7.2,194,194,0,0,0-62.3-10.5,264.84,264.84,0,0,0-82.7,14.9V372a235,235,0,0,1,82.7-17.5,157.6,157.6,0,0,1,51.8,8.5,154.25,154.25,0,0,0,48.6,8.5,180.64,180.64,0,0,0,60-10.3Z" transform="translate(-11.24 -12.65)"/><path class="cls-3" d="M583.9,280.3A267,267,0,0,1,507,291a157.61,157.61,0,0,1-53.7-11.6,243.71,243.71,0,0,0-86.4-16.9,436.83,436.83,0,0,0-133,23.6l12.4,40.8A395.23,395.23,0,0,1,366.8,305a201,201,0,0,1,73,14.7,197.13,197.13,0,0,0,67.8,13.8,327,327,0,0,0,76.3-9.1V280.3Z" transform="translate(-11.24 -12.65)"/></svg>