<?xml version="1.0" encoding="utf-8"?>
<svg xmlns="http://www.w3.org/2000/svg" width="303" height="106" viewBox="0 0 303 106" xmlns:xlink="http://www.w3.org/1999/xlink">
  <defs>
    <path id="a" d="M104.203468,93.1108597 C104.203468,99.0617397 99.3567662,103.887227 93.3783127,103.887227 L10.9677336,103.887227 C4.98887286,103.887227 0.142171534,99.0617397 0.142171534,93.1108597 L0.142171534,11.0743367 C0.142171534,5.12183511 4.98887286,0.29796967 10.9677336,0.29796967 L93.3783127,0.29796967 C99.3567662,0.29796967 104.203468,5.12183511 104.203468,11.0743367 L104.203468,93.1108597 Z"/>
  </defs>
  <g fill="none" fill-rule="evenodd">
    <path fill="#FFFFFF" d="M0,10.3904611 C0,10.3904611 0.456542991,0.921424418 10.545857,0.0125750275 L96.0722586,2.52141109e-05 C96.0722586,2.52141109e-05 105.713204,-0.0894428105 106.980652,10.3904611 C106.980652,10.3904611 106.999045,94.9723575 106.999862,94.9723575 C107.000271,94.9723575 107.152725,105.215839 95.8674886,106 L10.8417721,105.994332 C10.8417721,105.994332 1.1080466,105.74698 0,95.6132077 L0,10.3904611 Z"/>
    <g transform="translate(.915 .906)">
      <mask id="b" fill="white">
        <use xlink:href="#a"/>
      </mask>
      <path fill="#86B918" d="M31.9093848,69.5862556 C31.7367101,70.9577269 33.8902566,73.1039193 37.0199852,74.2503931 C40.5467841,75.5411896 46.8758812,76.1176697 51.0294403,75.9060504 C55.1821849,75.6944311 65.128898,73.6195893 67.4762963,71.3886681 C68.8963826,70.038683 68.5856496,68.3562692 67.1785954,67.7639785 C64.5139481,66.6438558 58.6112434,65.931161 58.6271262,67.0022302 C58.6434163,68.0720832 65.42497,67.6318178 64.2761132,69.9871971 C63.4245501,71.7312318 60.9574199,72.698113 59.8163009,73.0167581 C58.8995775,73.2733769 54.2076318,74.1539077 52.4951388,74.2106638 C50.8213347,74.2662037 47.973017,74.3772836 46.6339738,74.3217437 C45.4435773,74.2730955 41.3095663,74.0772869 38.3150453,72.7654096 C36.532505,71.9850128 36.0262913,69.7094975 36.9189868,68.7653188 C37.9008704,67.7258708 40.7528534,68.0720832 40.7996873,67.2945243 C40.844485,66.5181815 32.3345555,66.19305 31.9093848,69.5862556 Z M43.5229788,57.7453058 C43.5229788,57.7453058 46.3366801,57.5004436 48.4755655,57.9832761 C50.7936416,58.5054325 52.4650022,58.6367824 54.3937458,58.094356 C56.342852,57.5470648 58.6808834,57.7453058 59.7450319,58.274354 C60.8075513,58.8046184 57.053506,60.0277129 54.9769301,60.062172 C52.9414866,60.0950095 51.8814107,60.039875 49.3694828,59.9287951 C49.3694828,59.9287951 46.2145046,59.687987 44.9019327,59.4512328 C43.2146893,59.1459659 40.2299423,57.9703033 43.5229788,57.7453058 Z M56.933774,38.10201 C56.548514,39.7167219 58.7444147,38.4206552 62.3644742,38.10201 C65.9857554,37.7845811 70.7774778,37.3601264 72.3743113,37.465936 C73.9723666,37.5729619 75.4633147,37.7845811 75.7834145,37.3601264 C76.1018852,36.9368878 74.2912446,35.240285 69.1806442,34.9228561 C64.0688221,34.604211 57.4664591,35.876359 56.933774,38.10201 Z" mask="url(#b)"/>
      <path fill="#85B818" d="M93.2602097,59.6758249 C94.5552698,57.7412518 96.5129283,58.1113828 98.9450349,57.0018005 C101.363702,55.8974884 105.082317,52.0996927 106.620506,53.227518 C108.158695,54.3557488 105.16336,58.2248951 104.271886,59.5156916 C103.381634,60.8052719 100.546755,62.9011946 98.84648,65.0765759 C97.1462045,67.2531734 93.8780104,67.3934421 92.0539305,65.7787303 C91.3550867,65.1613047 92.2551128,61.1754029 93.2602097,59.6758249 L93.2602097,59.6758249 Z M111.367023,52.9263052 C112.235284,49.5910719 112.368862,47.504068 112.368862,47.504068 C112.368862,45.6513858 111.802782,40.9754917 112.04469,36.9458066 C112.287819,32.9153108 111.154438,20.3401799 110.668587,18.4056068 C110.18355,16.4710336 110.102507,15.3428029 109.373119,10.5067754 C108.644954,5.67074795 100.708842,-6.82370814 100.708842,-6.82370814 C92.449779,-18.7530354 82.7335703,-20.1232904 82.7335703,-20.1232904 C78.8463538,-22.7020456 59.1703998,-25.1206675 56.8217798,-24.7172936 C54.4743816,-24.3139197 44.8379942,-22.7020456 38.8467122,-22.4612375 C32.8540049,-22.2192131 18.4413707,-18.1080425 6.94221444,-6.50100901 C-4.55572005,5.10602448 -5.2024356,16.551303 -5.2024356,16.551303 C-6.82166797,25.337557 -4.47426973,51.8576684 -4.47426973,51.8576684 C-3.73714433,59.0478589 -2.34638011,64.1153703 -1.3661255,67.0018248 C-1.3661255,67.0018248 -4.28326873,101.079582 -3.40767778,101.882276 C3.60315855,111.802031 6.45799229,110.469073 10.8200642,110.21367 C16.601408,109.87516 37.0531762,115.604286 45.5551643,111.879868 C54.057356,108.155855 53.4049389,97.2063819 51.3642011,97.2063819 C49.3238706,97.2063819 43.97177,97.0438161 38.4414969,94.1593886 C31.2995255,90.4357812 23.5385318,83.4969392 21.5181566,81.60169 C19.4969668,79.706684 17.5832916,76.6305018 16.416923,74.5889029 C15.2505544,72.5468985 14.0695247,67.0127706 13.2590941,66.6093967 C12.4498851,66.2060228 12.2071632,67.3338481 10.1012651,68.0599212 C7.99577434,68.784778 8.56307582,66.2060228 8.72516196,65.4799498 C8.8872481,64.755093 12.5313354,63.2238937 12.9349218,62.8205198 C13.3401371,62.4171459 13.0970079,58.2265167 12.8538787,56.2915381 C12.6119713,54.356965 12.2735452,52.2756367 12.287799,49.7629619 C12.304089,46.9263717 13.2709043,41.5244045 13.9506073,40.8879251 C14.8750684,40.023205 16.6738987,43.0847926 17.8504486,43.7354611 C19.0257767,44.3861296 20.7093549,44.9269344 21.1939843,44.5235605 C21.6802427,44.1201866 20.0610103,43.0726306 20.6279045,42.1061548 C21.195206,41.1380575 23.7050977,40.0102321 25.32433,39.6068582 C26.9435624,39.2030789 32.2068821,39.2841591 33.4213064,39.3644285 C34.6365452,39.4455087 39.8984395,39.6871276 40.465741,39.6068582 C41.0330425,39.525778 40.8709563,38.8001104 39.9794826,37.9945788 C39.0898414,37.187831 35.1215818,35.8986561 31.9637529,35.7373065 C28.805924,35.5771732 25.4053731,37.187831 23.7857335,37.913904 C22.1665011,38.6399771 20.8539292,39.507535 19.6769721,39.2561864 C18.1420408,38.9282171 18.0361553,33.7216532 18.0361553,33.7216532 C17.9567413,30.4979052 25.243287,28.4826572 26.2952178,28.4826572 C27.347556,28.4826572 33.4139759,28.8487342 34.6353234,28.6440068 C35.7976195,28.4494143 38.52254,28.0804995 37.4702018,27.515776 C36.4166419,26.9510526 30.5066067,23.1637973 26.6193901,20.0993718 C22.7338026,17.0369733 20.8685902,14.4501101 23.4615612,15.0217254 C26.0981081,15.6034757 34.7224753,23.6397379 39.2564074,25.0902624 C43.7917648,26.5424085 46.8624419,26.0648462 49.6150555,26.3068705 C52.3688908,26.5476787 65.4860577,29.1276501 65.4860577,29.1276501 C66.8621609,29.6116988 72.7652728,30.9474948 73.3325743,30.4646623 C73.8990613,29.9806136 64.0842977,22.6400193 66.2472109,21.9840806 C68.1873576,21.3970601 76.2000329,29.7085896 77.4661781,28.7850863 C78.7306943,27.8619884 73.7239431,21.534491 76.6223528,21.3123313 C77.9972342,21.2065217 83.3802859,29.9331817 87.0243732,35.6566317 C90.6684605,41.3800818 90.5874175,45.8127354 90.5874175,45.8127354 C90.6684605,47.5052842 90.1011591,52.3417171 89.8592516,57.016395 C89.6825044,60.4136546 90.270983,63.1618674 89.9708385,64.7129313 C89.6719159,66.2639951 88.8565982,69.6004446 87.5106316,72.6539243 C86.0534854,75.9587525 82.4904411,81.2788287 81.9231396,82.0038477 C81.3558381,82.7299207 80.8708015,83.6157217 79.979735,85.9536688 C79.089483,88.2903996 77.1884325,94.7650576 77.6319295,98.1254257 C77.9512147,100.546885 79.2263195,101.477686 81.3517656,102.916454 C83.477619,104.355222 90.4725725,106.876004 98.7027202,108.964224 C109.476561,111.697437 110.839632,75.6360534 110.839632,75.6360534 L111.367023,52.9263052 Z" mask="url(#b)"/>
    </g>
    <g fill="#2F4250" transform="translate(117 16)">
      <path d="M162.986614,79.8026546 C165.910987,80.9180115 168.442132,81.3646766 171.535074,81.3646766 C174.964863,81.3646766 178.789335,80.5270706 178.789335,75.5652854 L178.789335,62.296225 C178.789335,57.8908122 175.583916,55.9407517 172.660124,55.9407517 C169.115824,55.9407517 166.52975,58.5609551 166.52975,62.4639784 C166.52975,66.3661311 169.115824,68.7640177 172.660124,68.7640177 C174.457995,68.7640177 175.583916,68.4279304 176.652002,68.0944553 L176.652002,75.5086904 C175.190396,76.0116604 173.61428,76.2339771 172.660124,76.2339771 C164.336325,76.2339771 159.331873,70.4926321 159.331873,62.5751368 C159.331873,54.6585122 164.336325,48.6933992 172.660124,48.6933992 C179.913222,48.6933992 185.986049,54.6585122 185.986049,61.3489118 L185.986049,74.4505091 C185.986049,83.7619827 181.206259,88.5 171.703352,88.5 C168.779269,88.5 165.742419,88.1093494 162.986614,87.1071826 L162.986614,79.8026546 Z M74.4581852,64.9731104 C73.1099274,72.2756068 67.4300389,77.126814 59.7255839,77.126814 C51.2337975,77.126814 45.8922086,70.6593116 45.8922086,62.9104404 C45.8922086,55.1594505 51.2337975,48.693109 59.7255839,48.693109 C67.0365185,48.693109 71.1966743,52.5949714 72.9965796,56.7211822 L59.106821,67.0357805 L55.6203582,62.5194995 L62.762143,57.0555281 C62.0311949,56.2202439 60.7384484,55.8293031 59.2198782,55.8293031 C55.6767415,55.8293031 53.090086,59.00733 53.090086,62.9104404 C53.090086,66.2547695 55.7319622,69.989459 60.0077909,69.989459 C63.6049858,69.989459 66.5854523,67.8167915 67.2042152,64.1926799 L74.4581852,64.9731104 Z M130.785369,62.9102953 C130.785369,70.6594567 125.442908,77.1266689 116.951122,77.1266689 C108.460207,77.1266689 103.118037,70.6594567 103.118037,62.9102953 C103.118037,55.1597407 108.460207,48.6933992 116.951122,48.6933992 C125.442908,48.6933992 130.785369,55.1597407 130.785369,62.9102953 Z M9.19948373,76.4573387 L0.483036109,76.4573387 L4.3630193,45.0141438 C4.98149152,40.0523586 6.78139683,36.761432 11.2798522,36.761432 C14.9915575,36.761432 17.6903982,38.7695386 18.5341129,42.5608231 L22.7518145,61.0144499 L22.8642904,61.0144499 L26.9698067,42.5608231 C27.8126495,38.7695386 30.5120715,36.761432 34.2234862,36.761432 C38.7222322,36.761432 40.5221375,40.0523586 41.1403191,45.0141438 L45.0208836,76.4573387 L36.0791935,76.4573387 L33.3236788,46.2403688 L33.2109123,46.2403688 L26.0694181,74.3380737 C25.5634218,76.3450194 24.5508479,76.7913943 22.4713513,76.7913943 C20.389239,76.7913943 19.3778276,76.3450194 18.8718313,74.3380737 L12.3482281,46.2403688 L12.2360429,46.2403688 L9.19948373,76.4573387 Z M141.353164,76.4573387 L134.154996,76.4573387 L134.154996,57.72451 C134.154996,51.8154116 138.766218,48.6933992 145.457809,48.6933992 C152.14998,48.6933992 156.76033,51.8154116 156.76033,57.72451 L156.76033,76.4573387 L149.563325,76.4573387 L149.563325,60.1780048 C149.563325,57.3913251 148.101138,55.8293031 145.457809,55.8293031 C142.814479,55.8293031 141.353164,57.3913251 141.353164,60.1780048 L141.353164,76.4573387 Z M84.6333321,76.4573387 L77.4351641,76.4573387 L77.4351641,37.4312846 L84.6333321,37.4312846 L84.6333321,58.505521 L86.7137006,58.505521 C87.8939712,58.505521 89.1317875,57.5576273 89.9743397,55.6618399 L92.7865283,49.3618007 L100.82783,49.3618007 L97.9589673,55.6618399 C96.3290837,59.1739224 95.5426242,60.2891632 93.4050005,60.7355381 L93.4050005,60.9021306 C98.8041351,61.8508949 100.265741,64.4713885 100.265741,69.6006369 L100.265741,76.4573387 L93.0684446,76.4573387 L93.0684446,70.2124433 C93.0684446,66.6443753 91.4923286,65.4187308 88.7373953,65.4187017 L84.6333321,65.4187017 L84.6333321,76.4573387 Z M110.316205,62.9102953 C110.316205,67.4257055 112.958372,69.9893139 116.951122,69.9893139 C120.94329,69.9893139 123.58662,67.4257055 123.58662,62.9102953 C123.58662,58.3932017 120.94329,55.8293031 116.951122,55.8293031 C112.958372,55.8293031 110.316205,58.3932017 110.316205,62.9102953 Z M60.7384484,45.459648 L55.1701639,45.459648 L60.4001488,37.4309943 L69.0605037,37.4309943 L60.7384484,45.459648 Z M163.661469,0.5 L163.661469,20.8210876 C163.661469,27.1481183 159.256017,32.2280274 152.873081,32.2280274 C146.581115,32.2280274 142.177116,27.1481183 142.177116,20.8210876 C142.177116,14.9830957 146.44626,9.50179745 152.604825,9.50179745 C153.773761,9.50179745 154.941243,9.81408576 156.064549,10.1257936 L156.064549,16.1414067 C155.166486,15.740598 154.222502,15.4724248 152.963469,15.4724248 C150.04142,15.4724248 147.929372,17.7019775 147.929372,20.8646222 C147.929372,24.0275571 150.04142,26.2576903 152.784438,26.2576903 C155.795711,26.2576903 157.908631,24.0275571 157.908631,20.8646222 L157.908631,0.5 L163.661469,0.5 Z M173.684323,10.0364025 L173.684323,23.0486087 C173.684323,25.2767103 174.852387,26.5249928 176.964435,26.5249928 C179.077936,26.5249928 180.245709,25.2767103 180.245709,23.0486087 L180.245709,10.0364025 L186,10.0364025 L186,25.0088273 C186,29.7329135 182.313871,32.2280274 176.964435,32.2280274 C171.616161,32.2280274 167.930904,29.7329135 167.930904,25.0088273 L167.930904,10.0364025 L173.684323,10.0364025 Z M76.3699852,31.6931321 L70.6162753,31.6931321 L70.6162753,19.4837042 C70.6162753,16.8994895 68.639373,15.2045418 65.4923724,15.2045418 C62.7508082,15.2045418 60.6384698,17.7019775 60.6384698,20.8649124 C60.6384698,23.7619959 62.7508082,26.0789081 65.6725664,26.0789081 C66.9304366,26.0789081 67.8758737,25.8118958 68.9532593,25.4110871 L68.9532593,31.3370189 C67.6506312,31.6487268 66.4816954,31.8724947 65.3133409,31.8724947 C58.5705986,31.8724947 54.8850506,26.7461487 54.8850506,21.0872292 C54.8850506,14.1364926 59.5599217,9.50208768 65.5836319,9.50208768 C72.1450177,9.50208768 76.3699852,13.602468 76.3699852,19.2172724 L76.3699852,31.6931321 Z M16.1959508,0.512770154 L16.1959508,6.75128048 L10.57448,6.75128048 C7.85296972,6.75128048 6.60294667,7.90930124 6.60294667,10.4938062 L6.60294667,12.9323251 L16.1959508,12.9323251 L16.1959508,19.1690941 L6.60294667,19.1705452 L6.60294667,21.7208029 L6.60963128,21.7208029 C6.60963128,24.3053079 7.85849179,25.4636189 10.580874,25.4636189 L16.2017635,25.4636189 L16.2017635,31.7003879 L9.01870848,31.7012585 C2.9641909,31.7012585 0.0206351166,27.530062 0.00726588612,21.9355737 L0,21.9335421 L0,10.3156045 C0,4.70050988 2.94559023,0.513060384 9.01318641,0.512770154 L16.1959508,0.512770154 Z M108.372435,10.0364025 L112.552935,10.0364025 L112.552935,15.5621061 L108.372435,15.5621061 L108.372435,23.5832138 C108.372435,25.1876095 109.180692,25.9892268 110.348756,25.9892268 L112.552935,25.9892268 L112.552935,31.6931321 L109.541662,31.6931321 C104.236693,31.6931321 102.619307,28.5748927 102.619307,23.7619959 L102.619307,4.24368666 L108.372435,4.24368666 L108.372435,10.0364025 Z M26.4347469,31.6931321 L20.681037,31.6931321 L20.681037,16.7218682 C20.681037,11.9969114 24.366585,9.50208768 29.7151491,9.50208768 C35.0640039,9.50208768 38.7498426,11.9969114 38.7498426,16.7218682 L38.7498426,31.6931321 L32.9964233,31.6931321 L32.9964233,18.6809259 C32.9964233,16.4539852 31.8280688,15.2045418 29.7151491,15.2045418 C27.6022295,15.2045418 26.4347469,16.4539852 26.4347469,18.6809259 L26.4347469,31.6931321 Z M86.3945829,31.6931321 L80.6405824,31.6931321 L80.6405824,16.7218682 C80.6405824,11.9969114 84.3252586,9.50208768 89.6746946,9.50208768 C95.022968,9.50208768 98.709388,11.9969114 98.709388,16.7218682 L98.709388,31.6931321 L92.9553875,31.6931321 L92.9553875,18.6809259 C92.9553875,16.4539852 91.7876142,15.2045418 89.6746946,15.2045418 C87.5614842,15.2045418 86.3945829,16.4539852 86.3945829,18.6809259 L86.3945829,31.6931321 Z M53.0432937,6.20390525 L50.7958098,6.20390525 C49.4019223,6.20390525 48.5480353,6.73967125 48.5480353,8.38847223 L48.5480353,10.0364025 L53.0432937,10.0364025 L53.0432937,15.5621061 L48.5480353,15.5621061 L48.5480353,31.6931321 L42.7951973,31.6931321 L42.7951973,9.94759191 C42.7951973,5.04617473 44.5477291,0.5 50.7501801,0.5 L53.0432937,0.5 L53.0432937,6.20390525 Z M128.687853,15.3836142 L122.036079,15.3836142 C121.316175,15.3836142 120.598597,15.472715 120.598597,16.3648844 C120.598597,18.3259737 129.856498,19.3946034 129.856498,25.0985086 C129.856498,29.4212056 126.620563,31.6928419 122.484821,31.6931321 L114.440031,31.6931321 L114.440031,26.3456302 L121.856467,26.3456302 C122.934724,26.3456302 123.474144,25.8118958 123.474144,25.1432041 C123.474144,22.4249028 114.664111,21.8003262 114.664111,16.4092897 C114.664111,11.7301893 117.990725,10.0366928 121.765788,10.0366928 L128.687853,10.0366928 L128.687853,15.3836142 Z"/>
    </g>
  </g>
</svg>
